<?xml version="1.0" encoding="utf-8"?>
<!-- Generator: Adobe Illustrator 19.0.0, SVG Export Plug-In . SVG Version: 6.00 Build 0)  -->
<svg version="1.1" id="Layer_1" xmlns="http://www.w3.org/2000/svg" xmlns:xlink="http://www.w3.org/1999/xlink" x="0px" y="0px"
	 viewBox="0 0 92.5 92.5" style="enable-background:new 0 0 92.5 92.5;" xml:space="preserve">
<style type="text/css">
	.st0{fill:#FFFFFF;}
</style>
<g id="XMLID_26_">
	<g id="XMLID_85_">
		<path id="XMLID_87_" class="st0" d="M0,0v92.5h92.5V0H0z M82.1,82.1H10.4V10.4h71.7V82.1z"/>
		<rect id="XMLID_86_" x="8.7" y="8.7" class="st0" width="75.2" height="75.2"/>
	</g>
	<g id="XMLID_28_">
		<g id="XMLID_76_">
			<g id="XMLID_120_">
				<path id="XMLID_121_" class="st0" d="M40.1,55.7c-0.8-1.6-2-3.7-3.2-5.7v22.9h-8V53.2c-1.7,4.2-3.7,7.9-6,10.6
					c-0.8-2.4-2.7-5.8-4-8c3.8-4.3,7-11.1,8.8-17.2h-7.2V31h8.3V19.5h8V31h7v7.7h-7v0.8c1.7,1.6,7,7.7,8.2,9.1L40.1,55.7z
					 M63.8,38.7c2.3,7.1,5.9,14.2,9.7,18.8c-1.9,1.4-4.7,4.2-6.1,6.3c-1.9-2.9-3.7-6.5-5.2-10.6v2.2h-8.2v-3
					c-2.5,5.1-5.4,9.7-8.7,13c-0.9-2.4-3-5.5-4.5-7.5c5.1-4.8,9.4-12.1,12-19.2h-7.6V31h8.8V19.5h8.2V31h9.5v7.7H63.8z"/>
			</g>
		</g>
		<g id="XMLID_69_">
			<path id="XMLID_74_" class="st0" d="M62.4,66.2h-8.3v-1.6h8.3V66.2z"/>
			<path id="XMLID_72_" class="st0" d="M60.8,67.7h1.5V73h-8.3v-1.6h6.7V67.7z"/>
			<path id="XMLID_70_" class="st0" d="M54.1,56.5l8.3,0V58L59,60.1c-0.2,0.2-0.5,0.3-0.7,0.5c-0.2,0.2-0.5,0.3-0.7,0.5
				c-0.2,0.1-0.4,0.2-0.5,0.3l-0.2,0.1v0l0.2,0c0.1,0,0.3,0,0.6,0c0.2,0,0.5,0,0.9,0c0.3,0,0.7,0,1.1,0h2.7v1.6h-8.2v-1.5l3.4-2.3
				c0.2-0.1,0.4-0.3,0.6-0.4c0.2-0.2,0.4-0.3,0.6-0.4c0.2-0.1,0.4-0.2,0.5-0.3l0.2-0.1v0h-0.2c-0.1,0-0.3,0-0.6,0
				c-0.2,0-0.5,0-0.9,0c-0.3,0-0.7,0-1,0h-2.7V56.5z"/>
		</g>
	</g>
</g>
</svg>
